<svg width="16" height="21" viewBox="0 0 16 21" fill="none" xmlns="http://www.w3.org/2000/svg">
<path fill-rule="evenodd" clip-rule="evenodd" d="M2.7907 4.97368C2.7907 2.22679 5.03969 0 7.81395 0H8.18605C10.9603 0 13.2093 2.22679 13.2093 4.97368V7.73684H14.1395C15.167 7.73684 16 8.56158 16 9.57895V19.1579C16 20.1753 15.167 21 14.1395 21H1.86047C0.832959 21 0 20.1753 0 19.1579V9.57895C0 8.56158 0.832959 7.73684 1.86047 7.73684H2.7907V4.97368ZM11.0782 7.73684H4.92178V4.88995C4.92178 3.20667 6.29994 1.84211 8 1.84211C9.70006 1.84211 11.0782 3.20667 11.0782 4.88995V7.73684Z" fill="#E9EDF4"/>
</svg>
